<svg xmlns="http://www.w3.org/2000/svg" width="512" height="512" viewBox="0 0 512 512">
  <defs>
    <style>
      .cls-1 {
        fill: #c238f5;
      }

      .cls-2 {
        fill: #810083;
      }

      .cls-2, .cls-3 {
        fill-rule: evenodd;
      }

      .cls-3 {
        fill: #fff;
      }
    </style>
  </defs>
  <circle class="cls-1" cx="256" cy="256" r="256"/>
  <path id="_m_" data-name="{m}" class="cls-2" d="M152.026,394.513v-30.62H94.808V349.048c0-15.465,6.186-22.269,12.372-30.31,7.113-8.66,14.536-18.248,14.536-31.238,0-17.011-11.753-27.836-36.5-30.62v-2.474c24.742-2.784,36.5-13.609,36.5-30.619,0-12.99-7.423-22.578-14.536-31.238-6.186-8.042-12.372-14.846-12.372-30.31V147.393h57.218v-30.62H96.973c-28.145,0-38.97,13.918-38.97,33.4v13.918c0,20.723,9.9,30.62,17.32,39.28,6.8,8.35,9.279,13.608,9.279,20.1,0,10.516-11.444,16.7-33.4,16.7H23.363v30.928H51.2c21.959,0,33.4,6.186,33.4,16.7,0,6.495-2.474,11.753-9.279,20.1C67.9,316.573,58,326.47,58,347.192V361.11c0,19.485,10.825,33.4,38.97,33.4h55.053Zm207.409-277.74v30.62h57.218v14.846c0,15.464-6.186,22.268-12.371,30.31-7.114,8.66-14.537,18.248-14.537,31.238,0,17.01,11.753,27.835,36.5,30.619v2.474c-24.743,2.784-36.5,13.609-36.5,30.62,0,12.99,7.423,22.578,14.537,31.238,6.185,8.041,12.371,14.845,12.371,30.31v14.845H359.435v30.62h55.053c28.145,0,38.97-13.918,38.97-33.4V347.192c0-20.722-9.9-30.619-17.32-39.279-6.8-8.351-9.278-13.609-9.278-20.1,0-10.516,11.443-16.7,33.4-16.7H488.1V240.179H460.263c-21.96,0-33.4-6.186-33.4-16.7,0-6.5,2.474-11.753,9.278-20.1,7.423-8.66,17.32-18.557,17.32-39.28V150.176c0-19.485-10.825-33.4-38.97-33.4H359.435Z"/>
  <path id="_m_copy" data-name="{m} copy" class="cls-3" d="M209.029,337.567V223.749c0-10.825,6.5-15.773,14.845-15.773,8.042,0,13.3,5.258,13.3,20.1V337.567h37.114V223.749c0-10.825,6.5-15.773,14.227-15.773,8.351,0,13.918,5.258,13.918,20.1V337.567h36.805V223.44q0-49.176-33.4-49.177c-19.794,0-28.763,12.681-34.021,27.218h-1.856c-3.4-17.63-13.3-27.218-28.454-27.218-17.011,0-25.362,12.372-30.31,27.218h-2.165V177.975H172.223V337.567h36.806Z"/>
</svg>
